HIERARCHY
ROOT Hips
{
	OFFSET 0.000000 0.000000 0.000000 
	CHANNELS 6 Xposition Yposition Zposition Zrotation Yrotation Xrotation
	JOINT LHipJoint
	{
		OFFSET 0.000000 0.000000 0.000000 
		CHANNELS 3 Zrotation Yrotation Xrotation
		JOINT LeftUpLeg
		{
			OFFSET 1.091560 -1.614060 0.765000 
			CHANNELS 3 Zrotation Yrotation Xrotation
			JOINT LeftLeg
			{
				OFFSET 2.337500 -6.422250 0.000000 
				CHANNELS 3 Zrotation Yrotation Xrotation
				JOINT LeftFoot
				{
					OFFSET 2.492470 -6.848000 0.000000 
					CHANNELS 3 Zrotation Yrotation Xrotation
					JOINT LeftToeBase
					{
						OFFSET 0.153120 -0.420690 1.454610 
						CHANNELS 3 Zrotation Yrotation Xrotation
						End Site
						{
							OFFSET 0.000000 -0.000000 0.770460 
						}
					}
				}
			}
		}
	}
	JOINT RHipJoint
	{
		OFFSET 0.000000 0.000000 0.000000 
		CHANNELS 3 Zrotation Yrotation Xrotation
		JOINT RightUpLeg
		{
			OFFSET -0.998830 -1.614060 0.765000 
			CHANNELS 3 Zrotation Yrotation Xrotation
			JOINT RightLeg
			{
				OFFSET -2.368770 -6.508150 0.000000 
				CHANNELS 3 Zrotation Yrotation Xrotation
				JOINT RightFoot
				{
					OFFSET -2.534520 -6.963530 0.000000 
					CHANNELS 3 Zrotation Yrotation Xrotation
					JOINT RightToeBase
					{
						OFFSET -0.131560 -0.361450 1.632370 
						CHANNELS 3 Zrotation Yrotation Xrotation
						End Site
						{
							OFFSET -0.000000 -0.000000 0.849790 
						}
					}
				}
			}
		}
	}
	JOINT LowerBack
	{
		OFFSET 0.000000 0.000000 0.000000 
		CHANNELS 3 Zrotation Yrotation Xrotation
		JOINT Spine
		{
			OFFSET -0.024310 1.982420 -0.136160 
			CHANNELS 3 Zrotation Yrotation Xrotation
			JOINT Spine1
			{
				OFFSET 0.036290 1.989740 -0.029540 
				CHANNELS 3 Zrotation Yrotation Xrotation
				JOINT Neck
				{
					OFFSET 0.000000 0.000000 0.000000 
					CHANNELS 3 Zrotation Yrotation Xrotation
					JOINT Neck1
					{
						OFFSET 0.093490 1.407830 0.223330 
						CHANNELS 3 Zrotation Yrotation Xrotation
						JOINT Head
						{
							OFFSET -0.042730 1.445000 -0.064950 
							CHANNELS 3 Zrotation Yrotation Xrotation
							End Site
							{
								OFFSET -0.022510 1.446000 -0.045440 
							}
						}
					}
				}
				JOINT LeftShoulder
				{
					OFFSET 0.000000 0.000000 0.000000 
					CHANNELS 3 Zrotation Yrotation Xrotation
					JOINT LeftArm
					{
						OFFSET 3.491370 0.851260 -0.297400 
						CHANNELS 3 Zrotation Yrotation Xrotation
						JOINT LeftForeArm
						{
							OFFSET 5.060350 -0.000000 0.000000 
							CHANNELS 3 Zrotation Yrotation Xrotation
							JOINT LeftHand
							{
								OFFSET 3.147800 -0.000000 0.000000 
								CHANNELS 3 Zrotation Yrotation Xrotation
								JOINT LeftFingerBase
								{
									OFFSET 0.000000 0.000000 0.000000 
									CHANNELS 3 Zrotation Yrotation Xrotation
									JOINT LeftHandIndex1
									{
										OFFSET 0.606750 -0.000000 0.000000 
										CHANNELS 3 Zrotation Yrotation Xrotation
										End Site
										{
											OFFSET 0.489180 -0.000000 0.000000 
										}
									}
								}
								JOINT LThumb
								{
									OFFSET 0.000000 0.000000 0.000000 
									CHANNELS 3 Zrotation Yrotation Xrotation
									End Site
									{
										OFFSET 0.496640 -0.000000 0.496640 
									}
								}
							}
						}
					}
				}
				JOINT RightShoulder
				{
					OFFSET 0.000000 0.000000 0.000000 
					CHANNELS 3 Zrotation Yrotation Xrotation
					JOINT RightArm
					{
						OFFSET -3.281010 0.697070 0.007470 
						CHANNELS 3 Zrotation Yrotation Xrotation
						JOINT RightForeArm
						{
							OFFSET -5.122730 -0.000000 -0.000000 
							CHANNELS 3 Zrotation Yrotation Xrotation
							JOINT RightHand
							{
								OFFSET -3.422000 -0.000000 0.000000 
								CHANNELS 3 Zrotation Yrotation Xrotation
								JOINT RightFingerBase
								{
									OFFSET 0.000000 0.000000 0.000000 
									CHANNELS 3 Zrotation Yrotation Xrotation
									JOINT RightHandIndex1
									{
										OFFSET -0.704600 -0.000000 0.000000 
										CHANNELS 3 Zrotation Yrotation Xrotation
										End Site
										{
											OFFSET -0.568070 -0.000000 0.000000 
										}
									}
								}
								JOINT RThumb
								{
									OFFSET 0.000000 0.000000 0.000000 
									CHANNELS 3 Zrotation Yrotation Xrotation
									End Site
									{
										OFFSET -0.576740 -0.000000 0.576740 
									}
								}
							}
						}
					}
				}
			}
		}
	}
}
MOTION
Frames: 12
Frame Time: 0.008333
0.000000 15.999995 0.000000 1159.180054 94.973396 1162.589966 0.000000 0.000000 0.000000 -12.087000 -13.242800 -30.893801 1.679100 8.162900 23.209900 1.406500 -2.305700 -21.788700 0.163700 2.606800 7.185900 0.000000 0.000000 0.000000 29.016800 -3.326200 17.540100 0.000000 0.000000 -0.000000 -0.264300 1.325200 -9.335700 -0.150700 2.501700 -6.894400 2.230200 0.403200 -4.160200 0.979700 0.405300 0.441100 -0.216900 0.232300 2.795100 -0.858800 -4.012900 -6.407800 -0.167500 -5.273200 4.661000 -0.128200 -2.643900 2.605600 0.000000 0.000000 0.000000 -86.324303 13.017200 -16.210199 8.035200 -13.610000 -0.960400 -0.000000 -0.000000 16.737301 16.153200 44.539398 11.483600 -7.125000 0.000000 -0.000000 -37.014599 72.779297 -25.324200 0.000000 0.000000 0.000000 83.659103 14.952000 28.185400 -15.220100 24.451799 -3.316500 0.000000 0.000000 0.171600 -27.432699 31.174101 -15.039800 7.125000 -0.000000 -0.000000 2.293800 4.276100 2.460300 
0.000000 15.999995 0.000000 1161.250000 94.828102 1164.719971 0.000000 0.000000 0.000000 -12.273900 -13.286200 -30.680201 1.656800 8.111300 23.052601 1.533600 -2.985600 -22.638700 0.302400 3.535400 9.773100 0.000000 0.000000 0.000000 28.725000 -3.394200 17.981800 0.000000 0.000000 -0.000000 -0.274800 1.557200 -9.480400 -0.174200 2.688300 -7.412200 2.178500 0.434400 -4.097500 0.876000 0.455600 0.332300 -0.292400 0.255100 2.649200 -0.818200 -4.095100 -5.981300 -0.197700 -5.389000 4.284100 -0.133000 -2.702200 2.398300 0.000000 0.000000 0.000000 -86.282898 13.227900 -17.079399 7.906800 -13.401700 -0.930400 -0.000000 -0.000000 17.680700 15.520500 44.662998 11.045900 -7.125000 0.000000 -0.000000 -37.979401 72.642799 -25.928101 0.000000 0.000000 0.000000 83.970497 14.887000 28.140600 -15.122100 24.315901 -3.276000 0.000000 0.000000 0.544500 -27.799299 31.242001 -15.293500 7.125000 -0.000000 -0.000000 2.099200 4.440800 2.256900 
0.000000 15.999995 0.000000 1165.239990 94.897499 1168.719971 0.000000 0.000000 0.000000 -12.116800 -13.386200 -30.405399 1.656400 8.110500 23.050100 1.711000 -4.081500 -23.761499 0.708200 5.378500 14.991300 0.000000 0.000000 0.000000 28.683599 -3.358300 18.502899 0.000000 0.000000 -0.000000 -0.279700 1.778900 -9.527900 -0.201900 2.893200 -7.981500 2.294900 0.486400 -4.093100 0.880600 0.521800 0.240200 -0.349300 0.288600 2.554400 -1.138300 -4.140000 -5.595200 0.086000 -5.443300 4.091500 0.020400 -2.726300 2.282400 -0.000000 0.000000 0.000000 -86.369797 13.426000 -17.786501 7.811800 -13.247300 -0.908500 -0.000000 -0.000000 18.294300 15.354400 44.845001 10.959000 -7.125000 0.000000 -0.000000 -38.582600 72.713799 -26.428801 -0.000000 0.000000 0.000000 84.209000 14.726600 28.233900 -15.023400 24.178699 -3.235500 0.000000 0.000000 0.876400 -28.021000 31.311800 -15.460000 7.125000 -0.000000 -0.000000 1.987200 4.571200 2.140500 
0.000000 15.999995 0.000000 1167.739990 94.749901 1171.290039 0.000000 0.000000 0.000000 -12.283200 -13.397300 -30.215000 1.683900 8.174100 23.244101 1.039200 -2.477200 -18.597601 0.007900 -0.574200 -1.578000 0.000000 0.000000 0.000000 28.381800 -3.409900 18.952499 0.000000 -0.000000 0.000000 -0.272100 1.944200 -9.368800 -0.235200 3.121000 -8.615800 2.104200 0.439700 -4.290300 0.869500 0.462200 0.273800 -0.255800 0.257500 2.696800 -1.420700 -4.100800 -6.071100 0.251700 -5.371100 4.465900 0.106400 -2.689500 2.508800 -0.000000 0.000000 0.000000 -86.580597 13.372800 -19.009399 7.662300 -13.004000 -0.874600 -0.000000 -0.000000 19.240900 15.464200 44.991402 11.067000 -7.125000 0.000000 -0.000000 -38.816002 72.857300 -26.715200 -0.000000 0.000000 0.000000 84.336700 14.653500 28.622101 -15.078600 24.255400 -3.258100 0.000000 0.000000 0.872500 -27.710800 31.304001 -15.264900 7.125000 -0.000000 -0.000000 2.160500 4.483000 2.324300 
0.000000 15.999995 0.000000 1171.140015 94.657204 1174.699951 0.000000 0.000000 0.000000 -12.479900 -13.167300 -30.020599 1.738800 8.299400 23.627300 0.951700 -3.509200 -17.592199 0.008600 -0.597800 -1.642800 0.000000 0.000000 0.000000 28.128401 -3.432700 19.477301 0.000000 0.000000 -0.000000 -0.265000 2.072600 -9.224700 -0.297600 3.507800 -9.696000 1.948400 0.442800 -4.447400 0.831700 0.468800 0.351100 -0.205300 0.260100 2.863800 -1.231200 -4.158800 -6.835300 0.007600 -5.439600 4.951500 -0.031800 -2.727100 2.801900 -0.000000 -0.000000 0.000000 -86.651199 13.132900 -20.766600 7.401500 -12.578200 -0.816800 -0.000000 -0.000000 20.870001 15.567600 44.861599 11.118100 -7.125000 0.000000 -0.000000 -38.397598 72.802101 -26.361401 -0.000000 -0.000000 0.000000 84.558296 14.682300 28.898199 -15.122700 24.316799 -3.276300 0.000000 0.000000 0.664100 -27.381100 31.359800 -15.084900 7.125000 -0.000000 -0.000000 2.356500 4.457300 2.534500 
0.000000 15.999995 0.000000 1175.969971 94.924400 1179.530029 0.000000 0.000000 0.000000 -12.339400 -12.657300 -29.961901 1.818400 8.477100 24.172899 0.840200 -4.408800 -16.397699 0.029100 -1.101400 -3.027800 0.000000 0.000000 0.000000 28.272900 -3.308900 20.005199 0.000000 -0.000000 0.000000 -0.252400 2.196900 -8.982300 -0.269900 3.341900 -9.232100 2.118100 0.568200 -4.544700 0.813700 0.623700 0.395700 -0.306800 0.341000 2.969400 -1.202800 -4.202300 -6.253400 0.267400 -5.523300 4.247500 0.067000 -2.760600 2.464100 -0.000000 -0.000000 0.000000 -86.548698 12.898800 -22.273100 7.187000 -12.226600 -0.770800 -0.000000 -0.000000 22.485800 15.456200 44.679501 11.002200 -7.125000 0.000000 -0.000000 -38.086102 72.631699 -25.997999 -0.000000 -0.000000 0.000000 84.927101 14.761300 28.934500 -14.991600 24.134399 -3.222500 0.000000 0.000000 0.590700 -27.334801 31.406401 -15.075600 7.125000 -0.000000 -0.000000 2.391000 4.494100 2.573200 
0.000000 15.999995 0.000000 1179.719971 95.073799 1183.319946 0.000000 0.000000 0.000000 -12.388600 -12.193000 -30.046000 1.912900 8.682200 24.806200 0.642800 -5.356200 -14.278500 0.041100 -1.309000 -3.599500 0.000000 0.000000 0.000000 28.234600 -3.249300 20.520800 0.000000 0.000000 -0.000000 -0.238400 2.317700 -8.709900 -0.239400 3.148600 -8.692800 2.190400 0.629500 -4.623400 0.778100 0.701400 0.333500 -0.378000 0.380700 2.952600 -1.294900 -4.235900 -5.704000 0.522900 -5.579900 3.708900 0.181600 -2.783900 2.196000 0.000000 0.000000 0.000000 -86.565399 12.941800 -23.362301 7.079300 -12.049700 -0.748100 -0.000000 -0.000000 23.577900 15.190400 44.775501 10.826300 -7.125000 0.000000 -0.000000 -38.591499 72.605598 -26.349899 0.000000 0.000000 0.000000 85.315498 14.596100 28.938400 -14.831200 23.910500 -3.157200 0.000000 0.000000 0.914800 -27.271900 31.331400 -15.006100 7.125000 -0.000000 -0.000000 2.412900 4.399900 2.593100 
0.000000 15.999995 0.000000 1183.069946 95.094398 1186.640015 0.000000 0.000000 0.000000 -12.558100 -11.925900 -30.078400 2.007000 8.880600 25.422600 0.416300 -6.155800 -11.620900 0.010200 -0.652200 -1.792300 0.000000 0.000000 0.000000 27.995600 -3.279000 21.130501 0.000000 0.000000 0.000000 -0.236000 2.529500 -8.650000 -0.368900 3.901400 -10.799500 2.078700 0.601000 -4.656700 0.798500 0.671000 0.205000 -0.297200 0.362300 2.836400 -1.095400 -4.263300 -6.077100 0.031100 -5.602500 4.258200 -0.024700 -2.805900 2.424300 0.000000 0.000000 0.000000 -86.770599 13.185800 -24.482599 6.943000 -11.825400 -0.719900 -0.000000 -0.000000 24.487499 15.059200 44.996201 10.771200 -7.125000 0.000000 -0.000000 -39.250801 72.715302 -26.925100 0.000000 0.000000 0.000000 85.602600 14.175700 29.070299 -14.704300 23.732500 -3.105900 0.000000 0.000000 1.305500 -27.142599 31.370300 -14.942600 7.125000 -0.000000 -0.000000 2.492700 4.407900 2.679400 
0.000000 15.999995 0.000000 1186.290039 95.141296 1189.739990 0.000000 0.000000 0.000000 -12.651700 -11.718700 -29.986799 2.090800 9.052800 25.960600 0.250500 -6.614100 -9.389700 0.008300 0.586800 1.612500 0.000000 0.000000 0.000000 27.811899 -3.351600 21.777399 0.000000 0.000000 -0.000000 -0.234700 2.737400 -8.614600 -0.529600 4.663500 -12.951200 1.951500 0.604700 -4.570400 0.803900 0.687500 0.099000 -0.221100 0.367100 2.677600 -1.037600 -4.302600 -6.119000 -0.193500 -5.646100 4.453600 -0.111300 -2.833700 2.488300 0.000000 0.000000 0.000000 -86.879799 13.314300 -25.614500 6.756900 -11.518400 -0.682300 -0.000000 -0.000000 25.505100 15.037200 45.129101 10.779400 -7.125000 0.000000 -0.000000 -39.592701 72.801003 -27.248199 0.000000 0.000000 0.000000 85.864700 13.795300 29.234501 -14.522300 23.476400 -3.033100 0.000000 0.000000 1.466800 -27.310801 31.594700 -15.138100 7.125000 -0.000000 -0.000000 2.438700 4.684700 2.632100 
0.000000 15.999995 0.000000 1188.719971 95.049004 1192.069946 0.000000 0.000000 0.000000 -12.907400 -11.480900 -29.856701 2.154900 9.181500 26.364700 0.153700 -6.648700 -7.826900 0.065700 1.653200 4.548200 0.000000 0.000000 0.000000 27.522400 -3.520600 22.351200 0.000000 -0.000000 0.000000 -0.200400 3.059500 -7.953400 -0.522000 4.630300 -12.857000 1.799400 0.635700 -4.479600 0.673900 0.742200 0.058000 -0.267200 0.391800 2.585000 -1.131100 -4.345100 -5.647000 -0.010800 -5.711900 4.133600 -0.023300 -2.862800 2.304000 -0.000000 -0.000000 0.000000 -86.806702 13.177900 -26.846701 6.564200 -11.199700 -0.644300 -0.000000 -0.000000 26.885000 15.177100 44.907001 10.841000 -7.125000 0.000000 -0.000000 -38.915501 72.694397 -26.659800 -0.000000 -0.000000 0.000000 86.241203 13.502100 29.221701 -14.343800 23.224100 -2.962300 0.000000 0.000000 1.622000 -27.409300 31.691099 -15.238600 7.125000 -0.000000 -0.000000 2.401100 4.810400 2.596200 
0.000000 15.999995 0.000000 1191.619995 94.816902 1195.010010 0.000000 0.000000 0.000000 -13.402000 -11.191600 -29.781300 2.199600 9.270000 26.643700 0.099200 -5.868400 -6.492200 0.082100 1.848200 5.086400 0.000000 0.000000 0.000000 27.024500 -3.630500 22.773100 0.000000 -0.000000 0.000000 -0.110100 3.850500 -6.090000 -0.235400 3.122800 -8.620900 1.532000 0.613100 -4.594200 0.537100 0.726400 0.042000 -0.257700 0.381100 2.630900 -1.164800 -4.354700 -5.879800 0.126900 -5.727100 4.355300 0.015600 -2.866500 2.426500 0.000000 -0.000000 0.000000 -86.844704 12.899900 -28.760500 6.339000 -10.826400 -0.601300 -0.000000 -0.000000 28.853600 15.339800 44.702801 10.921600 -7.125000 0.000000 -0.000000 -38.263500 72.606796 -26.109200 0.000000 -0.000000 0.000000 86.660599 13.177700 29.025600 -14.266000 23.113701 -2.931700 0.000000 0.000000 2.117700 -27.167200 31.464399 -14.996200 7.125000 -0.000000 -0.000000 2.495900 4.512200 2.686900 
0.000000 15.999995 0.000000 1198.310059 94.492699 1201.739990 0.000000 0.000000 0.000000 -14.044500 -10.897800 -29.580500 2.236200 9.341700 26.870199 0.071600 -4.452500 -5.309600 0.030000 1.117800 3.072900 0.000000 0.000000 0.000000 26.330500 -3.564200 23.232201 0.000000 -0.000000 0.000000 -0.072900 3.987200 -5.183300 -0.209800 2.948700 -8.136000 0.807300 0.598200 -4.822800 0.422200 0.746700 -0.092400 0.033400 0.382100 2.613200 -1.596400 -4.367700 -5.580100 0.641900 -5.743900 4.380000 0.257000 -2.867200 2.412200 0.000000 0.000000 0.000000 -86.959702 12.845700 -31.434799 6.093700 -10.418300 -0.556100 -0.000000 -0.000000 31.489799 15.198200 44.615700 10.802200 -7.125000 0.000000 -0.000000 -38.210602 72.493896 -25.981600 0.000000 0.000000 0.000000 87.032402 12.644500 28.945400 -14.076900 22.844601 -2.857900 0.000000 0.000000 2.621700 -27.158501 31.509399 -15.009200 7.125000 -0.000000 -0.000000 2.508900 4.557000 2.702800 
